<?xml version="1.0" encoding="UTF-8"?>
<svg version="1.1" xmlns="http://www.w3.org/2000/svg" width="180" height="180">
<path d="M0 0 C0 0.66 0 1.32 0 2 C0.57363281 2.22945312 1.14726563 2.45890625 1.73828125 2.6953125 C4.589972 4.34032927 6.1491943 6.29748022 8.1875 8.875 C8.88230469 9.73867188 9.57710938 10.60234375 10.29296875 11.4921875 C11.87824888 13.82113451 12.39541371 15.32168272 13 18 C13.680625 18.268125 14.36125 18.53625 15.0625 18.8125 C23.53387886 22.23709997 28.78307693 29.79023079 32.25 37.9375 C34.67803431 47.85197342 34.25317644 56.95354839 29.25 66.05859375 C24.14654871 73.98489153 17.97394696 79.00868435 9 82 C6.21376109 82.12209745 3.45133164 82.18852935 0.6640625 82.20874023 C-0.18677414 82.21852402 -1.03761078 82.2283078 -1.91423035 82.23838806 C-4.73447106 82.26833578 -7.55466411 82.28973192 -10.375 82.30859375 C-11.34041718 82.31516558 -12.30583435 82.3217374 -13.30050659 82.32850838 C-18.41598037 82.36110749 -23.53143336 82.38555081 -28.64697266 82.4050293 C-32.86831267 82.42280182 -37.08897957 82.45755616 -41.31005859 82.50756836 C-46.4164551 82.56799444 -51.52223029 82.59853656 -56.62896729 82.60820198 C-58.56812772 82.61672386 -60.50727304 82.63546059 -62.44622803 82.6649456 C-82.84174037 82.95826016 -82.84174037 82.95826016 -91 76 C-96.98425915 68.89452371 -100.41310017 61.0112279 -99.859375 51.61328125 C-98.84009604 44.55588236 -95.64593284 39.34184261 -91 34 C-90.28457031 33.49984375 -89.56914063 32.9996875 -88.83203125 32.484375 C-86.52898972 30.61837121 -86.42702629 29.57874276 -86.0625 26.6875 C-85.15854821 21.77576195 -83.56733316 19.48239665 -80 16 C-76.977062 14.13437927 -74.779283 13.77119756 -71.25 13.875 C-70.45078125 13.89304687 -69.6515625 13.91109375 -68.828125 13.9296875 C-68.22484375 13.95289062 -67.6215625 13.97609375 -67 14 C-66.76410156 13.278125 -66.52820313 12.55625 -66.28515625 11.8125 C-63.02501036 4.67783421 -55.58119267 -1.57417965 -48.59765625 -5.03515625 C-31.48003292 -11.39313063 -15.33769661 -9.54345567 0 0 Z M-59 12.25 C-61.19605723 14.70285076 -61.19605723 14.70285076 -61 17 C-60.195625 17.763125 -59.39125 18.52625 -58.5625 19.3125 C-55.92701463 22.07654563 -55.31813933 23.28837448 -55 27 C-56.32 27.33 -57.64 27.66 -59 28 C-60.20442708 26.50260417 -61.40885417 25.00520833 -62.61328125 23.5078125 C-64.12270545 21.74707893 -64.12270545 21.74707893 -67 20 C-70.90273636 20.14454579 -73.46688832 20.69867601 -76.875 22.625 C-79.63101696 25.70525424 -79.63788969 27.94436453 -80 32 C-81.24831295 35.1720416 -82.62623434 36.66845501 -85.375 38.625 C-89.78229983 42.29467642 -91.76468645 46.43699859 -93 52 C-93.27320625 57.9929112 -92.13015032 62.8284473 -89 68 C-88.34 68 -87.68 68 -87 68 C-86.67 68.99 -86.34 69.98 -86 71 C-79.9790116 75.54919123 -75.71717144 76.14967953 -68.3449707 76.16113281 C-67.57855759 76.16609772 -66.81214447 76.17106262 -66.02250671 76.17617798 C-63.49025569 76.19076588 -60.95806737 76.19759705 -58.42578125 76.203125 C-56.65943908 76.20888056 -54.89309692 76.21463824 -53.12675476 76.22039795 C-49.42214671 76.23089928 -45.71756029 76.23674718 -42.01293945 76.24023438 C-37.28318231 76.24570804 -32.55371464 76.26971555 -27.82404804 76.29820633 C-24.17359097 76.31690261 -20.52320254 76.32204209 -16.87270164 76.32357025 C-15.13011282 76.32658308 -13.3875248 76.33456495 -11.64498329 76.34775543 C0.2541936 76.43137681 10.16749535 76.47738514 19.27734375 67.8203125 C24.79010336 61.99503818 26.49818226 56.43272335 27.375 48.6875 C26.65149012 41.57298617 24.24197547 34.06724296 19 29 C18.34 29 17.68 29 17 29 C16.93941406 30.01320312 16.87882812 31.02640625 16.81640625 32.0703125 C16.73193296 33.42188514 16.64728843 34.77344709 16.5625 36.125 C16.52318359 36.79015625 16.48386719 37.4553125 16.44335938 38.140625 C16.187848 42.15018817 15.73217587 46.04994196 15 50 C13.35 50 11.7 50 10 50 C10.17789063 48.27716797 10.17789063 48.27716797 10.359375 46.51953125 C11.38937329 34.93298917 11.21073601 24.6494777 4.3125 14.6875 C-3.50087243 5.42503092 -12.46054884 -1.06081353 -24.77734375 -2.2734375 C-38.27953791 -2.70737699 -50.05895604 2.04230814 -59 12.25 Z " fill="#9CE4F4" transform="translate(123,52)"/>
</svg>
